# xmcd
#
# Track frame offsets: 
#        182
#        21860
#        46792
#        65907
#
# Disc length: 1111 seconds
#
# Revision: 0
# Processed by: cddbd v1.5.2PL0 Copyright (c) Steve Scherf et al.
# Submitted via: ExactAudioCopy v1.0b1
#
DISCID=30045504
DTITLE=K. Da 'Cruz - New High Energy (The Remixes) CDM
DYEAR=1994
DGENRE=Eurodance
TTITLE0=New High Energy (Party Mix)
TTITLE1=New High Energy (Brass Mix)
TTITLE2=New High Energy (Groove Dub)
TTITLE3=New High Energy (Video Mix)
EXTD=
EXTT0=
EXTT1=
EXTT2=
EXTT3=
PLAYORDER=
